<svg xmlns="http://www.w3.org/2000/svg" xmlns:xlink="http://www.w3.org/1999/xlink" width="428.699" height="55.856" viewBox="0 0 428.699 55.856">
  <defs>
    <clipPath id="clip-path">
      <rect width="428.699" height="55.856" fill="none"/>
    </clipPath>
  </defs>
  <g id="favorites_1_" data-name="favorites (1)" clip-path="url(#clip-path)">
    <g id="favorites_1_2" data-name="favorites (1)" transform="translate(0 -3.81)">
      <g id="Group_65" data-name="Group 65" transform="translate(3.275 3.81)">
        <g id="Group_64" data-name="Group 64">
          <path id="Path_83" data-name="Path 83" d="M78.592,25.726a3.739,3.739,0,0,0-2.072-6.378l-12.406-1.8a.747.747,0,0,1-.563-.409L58,5.894a3.739,3.739,0,0,0-6.706,0L45.748,17.136a.748.748,0,0,1-.563.409l-12.406,1.8a3.739,3.739,0,0,0-2.072,6.378l8.977,8.751a.748.748,0,0,1,.215.662L37.78,47.495a3.739,3.739,0,0,0,5.425,3.942L54.3,45.6a.748.748,0,0,1,.7,0l11.1,5.834a3.739,3.739,0,0,0,5.425-3.942L69.4,35.138a.748.748,0,0,1,.215-.662Zm-12.14,9.918L68.571,48a.748.748,0,0,1-1.085.788l-11.1-5.834a3.739,3.739,0,0,0-3.48,0l-11.1,5.834A.748.748,0,0,1,40.728,48l2.119-12.356a3.738,3.738,0,0,0-1.075-3.31l-8.977-8.751a.748.748,0,0,1,.415-1.276l12.406-1.8a3.739,3.739,0,0,0,2.815-2.045L53.979,7.218a.748.748,0,0,1,1.341,0h0L60.868,18.46a3.738,3.738,0,0,0,2.815,2.045l12.406,1.8a.748.748,0,0,1,.414,1.276l-8.977,8.751A3.738,3.738,0,0,0,66.452,35.644Z" transform="translate(-29.574 -3.81)" fill="#fff"/>
        </g>
      </g>
      <g id="Group_67" data-name="Group 67" transform="translate(41.86 5.608)">
        <g id="Group_66" data-name="Group 66">
          <path id="Path_84" data-name="Path 84" d="M381.963,20.331a1.5,1.5,0,0,0-2.089.331l-1.588,2.185a1.5,1.5,0,0,0,2.42,1.758l1.588-2.185A1.5,1.5,0,0,0,381.963,20.331Z" transform="translate(-378.001 -20.045)" fill="#fff"/>
        </g>
      </g>
      <g id="Group_69" data-name="Group 69" transform="translate(10.254 5.599)">
        <g id="Group_68" data-name="Group 68" transform="translate(0 0)">
          <path id="Path_85" data-name="Path 85" d="M96.883,22.768,95.3,20.583a1.5,1.5,0,0,0-2.42,1.758l1.588,2.185a1.5,1.5,0,1,0,2.42-1.758Z" transform="translate(-92.59 -19.966)" fill="#fff"/>
        </g>
      </g>
      <g id="Group_71" data-name="Group 71" transform="translate(0 36.333)">
        <g id="Group_70" data-name="Group 70" transform="translate(0)">
          <path id="Path_86" data-name="Path 86" d="M5.488,298.527a1.5,1.5,0,0,0-1.885-.96l-2.569.835a1.5,1.5,0,1,0,.924,2.845l2.569-.835A1.5,1.5,0,0,0,5.488,298.527Z" transform="translate(0 -297.493)" fill="#fff"/>
        </g>
      </g>
      <g id="Group_73" data-name="Group 73" transform="translate(26.855 53.973)">
        <g id="Group_72" data-name="Group 72">
          <path id="Path_87" data-name="Path 87" d="M243.995,456.786a1.5,1.5,0,0,0-1.5,1.5v2.7a1.5,1.5,0,0,0,2.991,0v-2.7A1.5,1.5,0,0,0,243.995,456.786Z" transform="translate(-242.499 -456.786)" fill="#fff"/>
        </g>
      </g>
      <g id="Group_75" data-name="Group 75" transform="translate(51.139 36.335)">
        <g id="Group_74" data-name="Group 74">
          <path id="Path_88" data-name="Path 88" d="M466.31,298.421l-2.569-.835a1.5,1.5,0,0,0-.924,2.845l2.569.835a1.5,1.5,0,0,0,.924-2.845Z" transform="translate(-461.783 -297.513)" fill="#fff"/>
        </g>
      </g>
    </g>
    <g id="favorites_1_3" data-name="favorites (1)" transform="translate(90 -3.81)">
      <g id="Group_65-2" data-name="Group 65" transform="translate(3.275 3.81)">
        <g id="Group_64-2" data-name="Group 64">
          <path id="Path_83-2" data-name="Path 83" d="M78.592,25.726a3.739,3.739,0,0,0-2.072-6.378l-12.406-1.8a.747.747,0,0,1-.563-.409L58,5.894a3.739,3.739,0,0,0-6.706,0L45.748,17.136a.748.748,0,0,1-.563.409l-12.406,1.8a3.739,3.739,0,0,0-2.072,6.378l8.977,8.751a.748.748,0,0,1,.215.662L37.78,47.495a3.739,3.739,0,0,0,5.425,3.942L54.3,45.6a.748.748,0,0,1,.7,0l11.1,5.834a3.739,3.739,0,0,0,5.425-3.942L69.4,35.138a.748.748,0,0,1,.215-.662Zm-12.14,9.918L68.571,48a.748.748,0,0,1-1.085.788l-11.1-5.834a3.739,3.739,0,0,0-3.48,0l-11.1,5.834A.748.748,0,0,1,40.728,48l2.119-12.356a3.738,3.738,0,0,0-1.075-3.31l-8.977-8.751a.748.748,0,0,1,.415-1.276l12.406-1.8a3.739,3.739,0,0,0,2.815-2.045L53.979,7.218a.748.748,0,0,1,1.341,0h0L60.868,18.46a3.738,3.738,0,0,0,2.815,2.045l12.406,1.8a.748.748,0,0,1,.414,1.276l-8.977,8.751A3.738,3.738,0,0,0,66.452,35.644Z" transform="translate(-29.574 -3.81)" fill="#fff"/>
        </g>
      </g>
      <g id="Group_67-2" data-name="Group 67" transform="translate(41.86 5.608)">
        <g id="Group_66-2" data-name="Group 66">
          <path id="Path_84-2" data-name="Path 84" d="M381.963,20.331a1.5,1.5,0,0,0-2.089.331l-1.588,2.185a1.5,1.5,0,0,0,2.42,1.758l1.588-2.185A1.5,1.5,0,0,0,381.963,20.331Z" transform="translate(-378.001 -20.045)" fill="#fff"/>
        </g>
      </g>
      <g id="Group_69-2" data-name="Group 69" transform="translate(10.254 5.599)">
        <g id="Group_68-2" data-name="Group 68" transform="translate(0 0)">
          <path id="Path_85-2" data-name="Path 85" d="M96.883,22.768,95.3,20.583a1.5,1.5,0,0,0-2.42,1.758l1.588,2.185a1.5,1.5,0,1,0,2.42-1.758Z" transform="translate(-92.59 -19.966)" fill="#fff"/>
        </g>
      </g>
      <g id="Group_71-2" data-name="Group 71" transform="translate(0 36.333)">
        <g id="Group_70-2" data-name="Group 70" transform="translate(0)">
          <path id="Path_86-2" data-name="Path 86" d="M5.488,298.527a1.5,1.5,0,0,0-1.885-.96l-2.569.835a1.5,1.5,0,1,0,.924,2.845l2.569-.835A1.5,1.5,0,0,0,5.488,298.527Z" transform="translate(0 -297.493)" fill="#fff"/>
        </g>
      </g>
      <g id="Group_73-2" data-name="Group 73" transform="translate(26.855 53.973)">
        <g id="Group_72-2" data-name="Group 72">
          <path id="Path_87-2" data-name="Path 87" d="M243.995,456.786a1.5,1.5,0,0,0-1.5,1.5v2.7a1.5,1.5,0,0,0,2.991,0v-2.7A1.5,1.5,0,0,0,243.995,456.786Z" transform="translate(-242.499 -456.786)" fill="#fff"/>
        </g>
      </g>
      <g id="Group_75-2" data-name="Group 75" transform="translate(51.139 36.335)">
        <g id="Group_74-2" data-name="Group 74">
          <path id="Path_88-2" data-name="Path 88" d="M466.31,298.421l-2.569-.835a1.5,1.5,0,0,0-.924,2.845l2.569.835a1.5,1.5,0,0,0,.924-2.845Z" transform="translate(-461.783 -297.513)" fill="#fff"/>
        </g>
      </g>
    </g>
    <g id="favorites_1_4" data-name="favorites (1)" transform="translate(180 -3.81)">
      <g id="Group_65-3" data-name="Group 65" transform="translate(3.275 3.81)">
        <g id="Group_64-3" data-name="Group 64">
          <path id="Path_83-3" data-name="Path 83" d="M78.592,25.726a3.739,3.739,0,0,0-2.072-6.378l-12.406-1.8a.747.747,0,0,1-.563-.409L58,5.894a3.739,3.739,0,0,0-6.706,0L45.748,17.136a.748.748,0,0,1-.563.409l-12.406,1.8a3.739,3.739,0,0,0-2.072,6.378l8.977,8.751a.748.748,0,0,1,.215.662L37.78,47.495a3.739,3.739,0,0,0,5.425,3.942L54.3,45.6a.748.748,0,0,1,.7,0l11.1,5.834a3.739,3.739,0,0,0,5.425-3.942L69.4,35.138a.748.748,0,0,1,.215-.662Zm-12.14,9.918L68.571,48a.748.748,0,0,1-1.085.788l-11.1-5.834a3.739,3.739,0,0,0-3.48,0l-11.1,5.834A.748.748,0,0,1,40.728,48l2.119-12.356a3.738,3.738,0,0,0-1.075-3.31l-8.977-8.751a.748.748,0,0,1,.415-1.276l12.406-1.8a3.739,3.739,0,0,0,2.815-2.045L53.979,7.218a.748.748,0,0,1,1.341,0h0L60.868,18.46a3.738,3.738,0,0,0,2.815,2.045l12.406,1.8a.748.748,0,0,1,.414,1.276l-8.977,8.751A3.738,3.738,0,0,0,66.452,35.644Z" transform="translate(-29.574 -3.81)" fill="#fff"/>
        </g>
      </g>
      <g id="Group_67-3" data-name="Group 67" transform="translate(41.86 5.608)">
        <g id="Group_66-3" data-name="Group 66">
          <path id="Path_84-3" data-name="Path 84" d="M381.963,20.331a1.5,1.5,0,0,0-2.089.331l-1.588,2.185a1.5,1.5,0,0,0,2.42,1.758l1.588-2.185A1.5,1.5,0,0,0,381.963,20.331Z" transform="translate(-378.001 -20.045)" fill="#fff"/>
        </g>
      </g>
      <g id="Group_69-3" data-name="Group 69" transform="translate(10.254 5.599)">
        <g id="Group_68-3" data-name="Group 68" transform="translate(0 0)">
          <path id="Path_85-3" data-name="Path 85" d="M96.883,22.768,95.3,20.583a1.5,1.5,0,0,0-2.42,1.758l1.588,2.185a1.5,1.5,0,1,0,2.42-1.758Z" transform="translate(-92.59 -19.966)" fill="#fff"/>
        </g>
      </g>
      <g id="Group_71-3" data-name="Group 71" transform="translate(0 36.333)">
        <g id="Group_70-3" data-name="Group 70" transform="translate(0)">
          <path id="Path_86-3" data-name="Path 86" d="M5.488,298.527a1.5,1.5,0,0,0-1.885-.96l-2.569.835a1.5,1.5,0,1,0,.924,2.845l2.569-.835A1.5,1.5,0,0,0,5.488,298.527Z" transform="translate(0 -297.493)" fill="#fff"/>
        </g>
      </g>
      <g id="Group_73-3" data-name="Group 73" transform="translate(26.855 53.973)">
        <g id="Group_72-3" data-name="Group 72">
          <path id="Path_87-3" data-name="Path 87" d="M243.995,456.786a1.5,1.5,0,0,0-1.5,1.5v2.7a1.5,1.5,0,0,0,2.991,0v-2.7A1.5,1.5,0,0,0,243.995,456.786Z" transform="translate(-242.499 -456.786)" fill="#fff"/>
        </g>
      </g>
      <g id="Group_75-3" data-name="Group 75" transform="translate(51.139 36.335)">
        <g id="Group_74-3" data-name="Group 74">
          <path id="Path_88-3" data-name="Path 88" d="M466.31,298.421l-2.569-.835a1.5,1.5,0,0,0-.924,2.845l2.569.835a1.5,1.5,0,0,0,.924-2.845Z" transform="translate(-461.783 -297.513)" fill="#fff"/>
        </g>
      </g>
    </g>
    <g id="favorites_1_5" data-name="favorites (1)" transform="translate(270 -3.81)">
      <g id="Group_65-4" data-name="Group 65" transform="translate(3.275 3.81)">
        <g id="Group_64-4" data-name="Group 64">
          <path id="Path_83-4" data-name="Path 83" d="M78.592,25.726a3.739,3.739,0,0,0-2.072-6.378l-12.406-1.8a.747.747,0,0,1-.563-.409L58,5.894a3.739,3.739,0,0,0-6.706,0L45.748,17.136a.748.748,0,0,1-.563.409l-12.406,1.8a3.739,3.739,0,0,0-2.072,6.378l8.977,8.751a.748.748,0,0,1,.215.662L37.78,47.495a3.739,3.739,0,0,0,5.425,3.942L54.3,45.6a.748.748,0,0,1,.7,0l11.1,5.834a3.739,3.739,0,0,0,5.425-3.942L69.4,35.138a.748.748,0,0,1,.215-.662Zm-12.14,9.918L68.571,48a.748.748,0,0,1-1.085.788l-11.1-5.834a3.739,3.739,0,0,0-3.48,0l-11.1,5.834A.748.748,0,0,1,40.728,48l2.119-12.356a3.738,3.738,0,0,0-1.075-3.31l-8.977-8.751a.748.748,0,0,1,.415-1.276l12.406-1.8a3.739,3.739,0,0,0,2.815-2.045L53.979,7.218a.748.748,0,0,1,1.341,0h0L60.868,18.46a3.738,3.738,0,0,0,2.815,2.045l12.406,1.8a.748.748,0,0,1,.414,1.276l-8.977,8.751A3.738,3.738,0,0,0,66.452,35.644Z" transform="translate(-29.574 -3.81)" fill="#fff"/>
        </g>
      </g>
      <g id="Group_67-4" data-name="Group 67" transform="translate(41.86 5.608)">
        <g id="Group_66-4" data-name="Group 66">
          <path id="Path_84-4" data-name="Path 84" d="M381.963,20.331a1.5,1.5,0,0,0-2.089.331l-1.588,2.185a1.5,1.5,0,0,0,2.42,1.758l1.588-2.185A1.5,1.5,0,0,0,381.963,20.331Z" transform="translate(-378.001 -20.045)" fill="#fff"/>
        </g>
      </g>
      <g id="Group_69-4" data-name="Group 69" transform="translate(10.254 5.599)">
        <g id="Group_68-4" data-name="Group 68" transform="translate(0 0)">
          <path id="Path_85-4" data-name="Path 85" d="M96.883,22.768,95.3,20.583a1.5,1.5,0,0,0-2.42,1.758l1.588,2.185a1.5,1.5,0,1,0,2.42-1.758Z" transform="translate(-92.59 -19.966)" fill="#fff"/>
        </g>
      </g>
      <g id="Group_71-4" data-name="Group 71" transform="translate(0 36.333)">
        <g id="Group_70-4" data-name="Group 70" transform="translate(0)">
          <path id="Path_86-4" data-name="Path 86" d="M5.488,298.527a1.5,1.5,0,0,0-1.885-.96l-2.569.835a1.5,1.5,0,1,0,.924,2.845l2.569-.835A1.5,1.5,0,0,0,5.488,298.527Z" transform="translate(0 -297.493)" fill="#fff"/>
        </g>
      </g>
      <g id="Group_73-4" data-name="Group 73" transform="translate(26.855 53.973)">
        <g id="Group_72-4" data-name="Group 72">
          <path id="Path_87-4" data-name="Path 87" d="M243.995,456.786a1.5,1.5,0,0,0-1.5,1.5v2.7a1.5,1.5,0,0,0,2.991,0v-2.7A1.5,1.5,0,0,0,243.995,456.786Z" transform="translate(-242.499 -456.786)" fill="#fff"/>
        </g>
      </g>
      <g id="Group_75-4" data-name="Group 75" transform="translate(51.139 36.335)">
        <g id="Group_74-4" data-name="Group 74">
          <path id="Path_88-4" data-name="Path 88" d="M466.31,298.421l-2.569-.835a1.5,1.5,0,0,0-.924,2.845l2.569.835a1.5,1.5,0,0,0,.924-2.845Z" transform="translate(-461.783 -297.513)" fill="#fff"/>
        </g>
      </g>
    </g>
    <g id="favorites_1_6" data-name="favorites (1)" transform="translate(360 -3.81)">
      <g id="Group_65-5" data-name="Group 65" transform="translate(3.275 3.81)">
        <g id="Group_64-5" data-name="Group 64">
          <path id="Path_83-5" data-name="Path 83" d="M78.592,25.726a3.739,3.739,0,0,0-2.072-6.378l-12.406-1.8a.747.747,0,0,1-.563-.409L58,5.894a3.739,3.739,0,0,0-6.706,0L45.748,17.136a.748.748,0,0,1-.563.409l-12.406,1.8a3.739,3.739,0,0,0-2.072,6.378l8.977,8.751a.748.748,0,0,1,.215.662L37.78,47.495a3.739,3.739,0,0,0,5.425,3.942L54.3,45.6a.748.748,0,0,1,.7,0l11.1,5.834a3.739,3.739,0,0,0,5.425-3.942L69.4,35.138a.748.748,0,0,1,.215-.662Zm-12.14,9.918L68.571,48a.748.748,0,0,1-1.085.788l-11.1-5.834a3.739,3.739,0,0,0-3.48,0l-11.1,5.834A.748.748,0,0,1,40.728,48l2.119-12.356a3.738,3.738,0,0,0-1.075-3.31l-8.977-8.751a.748.748,0,0,1,.415-1.276l12.406-1.8a3.739,3.739,0,0,0,2.815-2.045L53.979,7.218a.748.748,0,0,1,1.341,0h0L60.868,18.46a3.738,3.738,0,0,0,2.815,2.045l12.406,1.8a.748.748,0,0,1,.414,1.276l-8.977,8.751A3.738,3.738,0,0,0,66.452,35.644Z" transform="translate(-29.574 -3.81)" fill="#fff"/>
        </g>
      </g>
      <g id="Group_67-5" data-name="Group 67" transform="translate(41.86 5.608)">
        <g id="Group_66-5" data-name="Group 66">
          <path id="Path_84-5" data-name="Path 84" d="M381.963,20.331a1.5,1.5,0,0,0-2.089.331l-1.588,2.185a1.5,1.5,0,0,0,2.42,1.758l1.588-2.185A1.5,1.5,0,0,0,381.963,20.331Z" transform="translate(-378.001 -20.045)" fill="#fff"/>
        </g>
      </g>
      <g id="Group_69-5" data-name="Group 69" transform="translate(10.254 5.599)">
        <g id="Group_68-5" data-name="Group 68" transform="translate(0 0)">
          <path id="Path_85-5" data-name="Path 85" d="M96.883,22.768,95.3,20.583a1.5,1.5,0,0,0-2.42,1.758l1.588,2.185a1.5,1.5,0,1,0,2.42-1.758Z" transform="translate(-92.59 -19.966)" fill="#fff"/>
        </g>
      </g>
      <g id="Group_71-5" data-name="Group 71" transform="translate(0 36.333)">
        <g id="Group_70-5" data-name="Group 70" transform="translate(0)">
          <path id="Path_86-5" data-name="Path 86" d="M5.488,298.527a1.5,1.5,0,0,0-1.885-.96l-2.569.835a1.5,1.5,0,1,0,.924,2.845l2.569-.835A1.5,1.5,0,0,0,5.488,298.527Z" transform="translate(0 -297.493)" fill="#fff"/>
        </g>
      </g>
      <g id="Group_73-5" data-name="Group 73" transform="translate(26.855 53.973)">
        <g id="Group_72-5" data-name="Group 72">
          <path id="Path_87-5" data-name="Path 87" d="M243.995,456.786a1.5,1.5,0,0,0-1.5,1.5v2.7a1.5,1.5,0,0,0,2.991,0v-2.7A1.5,1.5,0,0,0,243.995,456.786Z" transform="translate(-242.499 -456.786)" fill="#fff"/>
        </g>
      </g>
      <g id="Group_75-5" data-name="Group 75" transform="translate(51.139 36.335)">
        <g id="Group_74-5" data-name="Group 74">
          <path id="Path_88-5" data-name="Path 88" d="M466.31,298.421l-2.569-.835a1.5,1.5,0,0,0-.924,2.845l2.569.835a1.5,1.5,0,0,0,.924-2.845Z" transform="translate(-461.783 -297.513)" fill="#fff"/>
        </g>
      </g>
    </g>
  </g>
</svg>
